<svg xmlns="http://www.w3.org/2000/svg"
     viewBox="0 0 800 1200"
     preserveAspectRatio="xMidYMid meet"
     role="img"
     aria-label="Tree of Life diagram (Etz Chaim)">
  <defs>
    <!-- Soft glow -->
    <filter id="glow" x="-40%" y="-40%" width="180%" height="180%">
      <feGaussianBlur stdDeviation="6" result="blur"/>
      <feColorMatrix in="blur" type="matrix"
        values="1 0 0 0 0
                0 1 0 0 0
                0 0 1 0 0
                0 0 0 0.55 0" result="colored"/>
      <feMerge>
        <feMergeNode in="colored"/>
        <feMergeNode in="SourceGraphic"/>
      </feMerge>
    </filter>

    <!-- Orb fill (SVG-safe: hex + stop-opacity) -->
    <radialGradient id="orb" cx="35%" cy="30%" r="70%">
      <stop offset="0%"  stop-color="#FFFFFF" stop-opacity="0.70"/>
      <stop offset="35%" stop-color="#FFFFFF" stop-opacity="0.18"/>
      <stop offset="100%" stop-color="#FFFFFF" stop-opacity="0.06"/>
    </radialGradient>

    <style>
      .bg { fill: #FFFFFF; opacity: 0.02; }
      .frame { fill: #FFFFFF; opacity: 0.03; stroke: #FFFFFF; stroke-opacity: 0.12; stroke-width: 2; }
      .path { stroke: #8CBEFF; stroke-opacity: 0.55; stroke-width: 4; stroke-linecap: round; filter: url(#glow); }
      .path2 { stroke: #FFD7A0; stroke-opacity: 0.35; stroke-width: 3; stroke-linecap: round; filter: url(#glow); }
      .node { fill: url(#orb); stroke: #FFFFFF; stroke-opacity: 0.45; stroke-width: 2.2; filter: url(#glow); }
      .label { font-family: Arial, Helvetica, sans-serif; fill: #FFFFFF; opacity: 0.88; font-size: 22px; letter-spacing: 0.02em; }
      .he { font-size: 26px; font-weight: 700; }
      .small { font-size: 16px; fill: #FFFFFF; opacity: 0.68; }
    </style>
  </defs>

  <!-- Subtle background -->
  <rect class="bg" x="0" y="0" width="800" height="1200" />

  <!-- Optional frame (helps confirm scaling; keep or delete) -->
  <rect class="frame" x="140" y="70" width="520" height="1060" rx="28" />

  <!-- Paths -->
  <g>
    <!-- Vertical spine -->
    <line class="path" x1="400" y1="120" x2="400" y2="1040"/>
    <!-- Left pillar -->
    <line class="path2" x1="270" y1="240" x2="270" y2="920"/>
    <!-- Right pillar -->
    <line class="path2" x1="530" y1="240" x2="530" y2="920"/>

    <!-- Cross links -->
    <line class="path" x1="270" y1="240" x2="530" y2="240"/>
    <line class="path" x1="270" y1="360" x2="530" y2="360"/>
    <line class="path" x1="270" y1="520" x2="530" y2="520"/>
    <line class="path" x1="270" y1="760" x2="530" y2="760"/>

    <!-- Diagonals -->
    <line class="path2" x1="400" y1="120" x2="270" y2="240"/>
    <line class="path2" x1="400" y1="120" x2="530" y2="240"/>

    <line class="path2" x1="270" y1="240" x2="400" y2="360"/>
    <line class="path2" x1="530" y1="240" x2="400" y2="360"/>

    <line class="path2" x1="270" y1="360" x2="400" y2="520"/>
    <line class="path2" x1="530" y1="360" x2="400" y2="520"/>

    <line class="path2" x1="400" y1="520" x2="270" y2="640"/>
    <line class="path2" x1="400" y1="520" x2="530" y2="640"/>

    <line class="path2" x1="270" y1="640" x2="400" y2="760"/>
    <line class="path2" x1="530" y1="640" x2="400" y2="760"/>

    <line class="path2" x1="270" y1="760" x2="400" y2="920"/>
    <line class="path2" x1="530" y1="760" x2="400" y2="920"/>

    <line class="path2" x1="400" y1="920" x2="400" y2="1040"/>
  </g>

  <!-- Nodes -->
  <g>
    <circle class="node" cx="400" cy="120" r="34"/>
    <circle class="node" cx="270" cy="240" r="30"/>
    <circle class="node" cx="530" cy="240" r="30"/>
    <circle class="node" cx="400" cy="360" r="28"/>
    <circle class="node" cx="270" cy="520" r="30"/>
    <circle class="node" cx="530" cy="520" r="30"/>
    <circle class="node" cx="400" cy="640" r="34"/>
    <circle class="node" cx="270" cy="760" r="30"/>
    <circle class="node" cx="530" cy="760" r="30"/>
    <circle class="node" cx="400" cy="920" r="30"/>
    <circle class="node" cx="400" cy="1040" r="34"/>
  </g>

  <!-- Labels -->
  <g text-anchor="middle">
    <text class="label he" x="400" y="165">כֶּתֶר</text>
    <text class="label small" x="400" y="190">Keter</text>

    <text class="label he" x="270" y="285">חָכְמָה</text>
    <text class="label small" x="270" y="310">Chokhmah</text>

    <text class="label he" x="530" y="285">בִּינָה</text>
    <text class="label small" x="530" y="310">Binah</text>

    <text class="label he" x="400" y="405">דַּעַת</text>
    <text class="label small" x="400" y="430">Da’at</text>

    <text class="label he" x="270" y="565">חֶסֶד</text>
    <text class="label small" x="270" y="590">Chesed</text>

    <text class="label he" x="530" y="565">גְּבוּרָה</text>
    <text class="label small" x="530" y="590">Gevurah</text>

    <text class="label he" x="400" y="690">תִּפְאֶרֶת</text>
    <text class="label small" x="400" y="715">Tiferet</text>

    <text class="label he" x="270" y="805">נֵצַח</text>
    <text class="label small" x="270" y="830">Netzach</text>

    <text class="label he" x="530" y="805">הוֹד</text>
    <text class="label small" x="530" y="830">Hod</text>

    <text class="label he" x="400" y="965">יְסוֹד</text>
    <text class="label small" x="400" y="990">Yesod</text>

    <text class="label he" x="400" y="1088">מַלְכוּת</text>
    <text class="label small" x="400" y="1113">Malkhut</text>
  </g>
</svg>
